<?xml version="1.0" encoding="iso-8859-1"?>
<!-- Generator: Adobe Illustrator 19.0.0, SVG Export Plug-In . SVG Version: 6.00 Build 0)  -->
<svg version="1.1" id="Capa_1" xmlns="http://www.w3.org/2000/svg" xmlns:xlink="http://www.w3.org/1999/xlink" x="0px" y="0px"
	 viewBox="0 0 255.2 255.2" style="enable-background:new 0 0 255.2 255.2;" xml:space="preserve">
<g>
	<path style="fill:#009E81;" d="M127.6,195.2l-58.4-33.6v79.2c17.6,9.2,37.6,14.4,58.4,14.4c25.2,0,48.8-7.2,68.4-20L127.6,195.2z"
		/>
	<path style="fill:#00B594;" d="M186,161.2l-58.4,34l68.4,39.6c35.6-22.8,58.8-62.4,58.8-107.2c0-2,0-4,0-6L186,161.2z"/>
	<path style="fill:#009E81;" d="M186,94v67.6l68.4-39.6c-2-46.8-29.2-86.8-68.4-107.2V94z"/>
	<path style="fill:#00B594;" d="M127.6,60L186,93.6V14.4C168.4,5.2,148.4,0,127.6,0c-25.2,0-48.8,7.2-68.4,20L127.6,60z"/>
	<path style="fill:#009E81;" d="M69.2,94l58.4-34L59.2,20.4C23.6,43.2,0.4,82.8,0.4,127.6c0,2,0,4,0,6L69.2,94z"/>
	<path style="fill:#00B594;" d="M69.2,161.2V93.6L0.8,133.2C2.8,180,30,220,69.2,240.4V161.2z"/>
</g>
<g>
</g>
<g>
</g>
<g>
</g>
<g>
</g>
<g>
</g>
<g>
</g>
<g>
</g>
<g>
</g>
<g>
</g>
<g>
</g>
<g>
</g>
<g>
</g>
<g>
</g>
<g>
</g>
<g>
</g>
</svg>
